<svg xmlns="http://www.w3.org/2000/svg" width="600" height="400" viewBox="0 0 600 400"><rect width="100%" height="100%" fill="#DDDDDD"/><path fill="#999999" d="m129.22 191.41-.77 1.46q-.14.24-.3.35-.15.11-.38.11-.24 0-.53-.18-.28-.18-.67-.4t-.91-.4q-.53-.17-1.24-.17-.64 0-1.13.15-.48.16-.81.43-.33.28-.49.66-.16.39-.16.85 0 .58.33.98.33.39.87.66.54.28 1.23.5t1.41.46q.73.25 1.42.58t1.23.83.87 1.22q.32.73.32 1.76 0 1.13-.38 2.11-.39.98-1.13 1.71t-1.81 1.15-2.45.42q-.79 0-1.56-.15-.77-.16-1.48-.44-.71-.29-1.33-.69-.62-.41-1.1-.9l.91-1.48q.11-.17.3-.27.18-.11.39-.11.28 0 .62.23.33.24.79.53.46.28 1.08.52.61.23 1.47.23 1.33 0 2.05-.62.73-.63.73-1.8 0-.66-.33-1.07-.33-.42-.87-.7t-1.23-.47q-.69-.2-1.4-.43-.72-.23-1.41-.55t-1.23-.84-.87-1.3q-.32-.77-.32-1.91 0-.91.36-1.77t1.05-1.53 1.7-1.07 2.33-.4q1.47 0 2.71.46t2.12 1.29m9.86 3.26h2.84v11.8h-1.73q-.57 0-.72-.52l-.19-.94q-.73.74-1.6 1.19t-2.06.45q-.96 0-1.71-.32-.74-.33-1.24-.93-.51-.6-.77-1.42t-.26-1.81v-7.5h2.84v7.5q0 1.08.5 1.67t1.5.59q.74 0 1.38-.32.65-.33 1.22-.91zm8.49 3.45v5.29q.48.59 1.05.83t1.2.24q.66 0 1.18-.24.53-.23.89-.73.37-.5.57-1.28.19-.77.19-1.85 0-1.95-.64-2.82-.65-.87-1.85-.87-.82 0-1.43.38-.61.37-1.16 1.05m0-8.74v6.74q.71-.75 1.58-1.19t1.98-.44q1.03 0 1.85.4t1.4 1.16q.58.75.89 1.82.32 1.07.32 2.4 0 1.44-.36 2.61t-1.02 2.01q-.66.83-1.59 1.29t-2.07.46q-.55 0-1-.11t-.83-.3q-.38-.2-.7-.48-.31-.28-.6-.63l-.13.8q-.07.3-.23.42-.17.13-.46.13h-1.87v-17.09zm10.32 5.29h2.84v11.8h-2.84zm2.72-5.01h2.76l-2.84 3q-.22.23-.42.31-.2.09-.52.09h-1.7l1.63-2.79q.17-.3.4-.46.23-.15.69-.15m8.65-.28h2.84v17.09h-2.84zm11.91 14.04v-1.99q-1.23.06-2.07.22-.84.15-1.34.39-.51.24-.73.57-.22.32-.22.7 0 .74.45 1.07.44.32 1.15.32.88 0 1.52-.32.63-.31 1.24-.96m-6-6.2-.51-.9q2.04-1.87 4.9-1.87 1.04 0 1.85.34.82.34 1.38.94.57.61.86 1.45t.29 1.84v7.45h-1.28q-.41 0-.62-.12-.22-.12-.35-.49l-.25-.85q-.45.4-.88.71-.42.3-.88.51t-.99.31q-.52.11-1.15.11-.75 0-1.38-.2t-1.09-.6-.72-1q-.25-.6-.25-1.39 0-.45.15-.89.15-.45.49-.85t.88-.76 1.33-.62q.78-.26 1.83-.43t2.39-.2v-.69q0-1.19-.5-1.76-.51-.57-1.46-.57-.69 0-1.15.17-.45.16-.8.36-.34.2-.62.36-.29.16-.63.16-.3 0-.51-.15-.2-.16-.33-.37m17.12-2.55h2.86v11.8h-2.86zm3.25-3.44q0 .37-.15.69t-.4.57q-.25.24-.58.38t-.71.14q-.37 0-.7-.14t-.57-.38q-.24-.25-.38-.57-.15-.32-.15-.69 0-.38.15-.71.14-.33.38-.58.24-.24.57-.38t.7-.14q.38 0 .71.14t.58.38q.25.25.4.58t.15.71m5.34 15.24h-2.84v-11.8h1.74q.55 0 .72.52l.19.87q.31-.34.65-.63t.72-.49q.39-.21.83-.33t.97-.12q1.12 0 1.84.6t1.07 1.6q.28-.58.69-1 .42-.42.91-.69.49-.26 1.05-.39.56-.12 1.12-.12.98 0 1.74.3t1.28.87q.51.58.78 1.4.27.83.27 1.9v7.51h-2.84v-7.51q0-1.13-.49-1.7t-1.45-.57q-.44 0-.81.15t-.66.44q-.28.28-.44.7-.16.43-.16.98v7.51h-2.85v-7.51q0-1.18-.48-1.72-.48-.55-1.4-.55-.62 0-1.15.31-.54.3-1 .83zm22.66-3.05v-1.99q-1.23.06-2.07.22-.84.15-1.35.39-.5.24-.72.57-.22.32-.22.7 0 .74.44 1.07.45.32 1.16.32.87 0 1.51-.32.64-.31 1.25-.96m-6-6.2-.51-.9q2.04-1.87 4.9-1.87 1.03 0 1.85.34t1.38.94q.56.61.86 1.45.29.84.29 1.84v7.45h-1.29q-.4 0-.62-.12t-.34-.49l-.26-.85q-.45.4-.87.71-.43.3-.89.51t-.98.31q-.52.11-1.16.11-.74 0-1.38-.2-.63-.2-1.09-.6t-.71-1-.25-1.39q0-.45.15-.89.15-.45.48-.85.34-.4.88-.76t1.33-.62 1.84-.43q1.04-.17 2.39-.2v-.69q0-1.19-.51-1.76-.5-.57-1.46-.57-.69 0-1.14.17-.46.16-.8.36l-.63.36q-.28.16-.62.16-.3 0-.51-.15-.21-.16-.33-.37m15.75 3.06q.53 0 .92-.14t.65-.4q.26-.25.39-.61.13-.35.13-.78 0-.87-.52-1.38-.52-.52-1.57-.52t-1.57.52q-.52.51-.52 1.38 0 .41.13.77t.39.62.66.4q.39.14.91.14m3.21 6.72q0-.35-.21-.56-.2-.22-.56-.34t-.83-.18q-.48-.06-1.02-.09-.53-.03-1.1-.05t-1.11-.09q-.47.26-.77.62-.29.36-.29.83 0 .31.16.58.15.27.49.46.34.2.88.31t1.32.11q.8 0 1.37-.12.58-.12.95-.34.37-.21.55-.5.17-.3.17-.64m-.56-11.93h3.39v1.06q0 .51-.61.62l-1.06.2q.24.61.24 1.33 0 .88-.35 1.58-.35.71-.97 1.2-.62.5-1.47.77-.84.27-1.82.27-.34 0-.67-.03-.32-.04-.63-.1-.55.34-.55.75 0 .36.33.52.32.17.87.24.54.07 1.23.09.69.01 1.41.07t1.41.2q.69.15 1.24.46.54.31.86.84.33.54.33 1.38 0 .78-.38 1.51-.39.74-1.12 1.32-.73.57-1.79.92-1.07.35-2.42.35-1.34 0-2.33-.26t-1.64-.69q-.66-.43-.98-.99-.32-.57-.32-1.18 0-.82.5-1.38t1.37-.89q-.47-.24-.74-.65-.28-.4-.28-1.05 0-.27.1-.55t.29-.56q.18-.27.47-.52t.68-.44q-.9-.49-1.41-1.29-.51-.81-.51-1.89 0-.87.35-1.58t.98-1.21 1.48-.76q.86-.27 1.87-.27.76 0 1.43.16.66.15 1.22.45m7.42 4.14h5.36q0-.55-.15-1.04-.16-.49-.47-.85-.31-.37-.78-.58-.48-.22-1.11-.22-1.24 0-1.94.7-.71.71-.91 1.99m7.25 1.72h-7.3q.07.91.32 1.57t.67 1.09q.41.43.98.64.57.22 1.26.22t1.19-.17q.5-.16.87-.35.38-.2.66-.36t.54-.16q.36 0 .53.27l.82 1.03q-.47.55-1.06.93-.58.37-1.22.59-.64.23-1.3.32t-1.28.09q-1.23 0-2.29-.41-1.06-.4-1.84-1.2t-1.23-1.98-.45-2.73q0-1.21.39-2.27.39-1.07 1.12-1.86.73-.78 1.78-1.24 1.06-.46 2.38-.46 1.11 0 2.06.35.94.36 1.62 1.04.68.69 1.06 1.68.39 1 .39 2.27 0 .65-.14.87-.14.23-.53.23m5.26-5.74.19.93q.36-.36.75-.66.4-.31.84-.52.45-.21.95-.33.51-.12 1.11-.12.96 0 1.71.32.75.33 1.25.92.5.6.76 1.42t.26 1.81v7.51h-2.85v-7.51q0-1.08-.49-1.67-.49-.6-1.51-.6-.73 0-1.38.34-.64.33-1.22.91v8.53h-2.84v-11.8h1.74q.55 0 .73.52m18.34 4.02h5.36q0-.55-.16-1.04-.15-.49-.46-.85-.31-.37-.79-.58-.48-.22-1.11-.22-1.23 0-1.94.7-.71.71-.9 1.99m7.24 1.72h-7.3q.07.91.32 1.57.26.66.67 1.09t.98.64q.57.22 1.26.22t1.19-.17q.5-.16.88-.35.37-.2.65-.36t.55-.16q.35 0 .53.27l.81 1.03q-.47.55-1.05.93-.59.37-1.23.59-.64.23-1.3.32t-1.28.09q-1.23 0-2.29-.41-1.06-.4-1.84-1.2t-1.23-1.98-.45-2.73q0-1.21.39-2.27.39-1.07 1.12-1.86.73-.78 1.79-1.24 1.05-.46 2.37-.46 1.12 0 2.06.35.94.36 1.62 1.04.68.69 1.06 1.68.39 1 .39 2.27 0 .65-.14.87-.14.23-.53.23m5.26-5.74.19.93q.36-.36.76-.66.39-.31.84-.52.44-.21.95-.33.5-.12 1.1-.12.97 0 1.71.32.75.33 1.25.92.5.6.76 1.42t.26 1.81v7.51h-2.84v-7.51q0-1.08-.5-1.67-.49-.6-1.5-.6-.74 0-1.38.34-.65.33-1.22.91v8.53h-2.84v-11.8h1.73q.56 0 .73.52m18.34 4.02h5.36q0-.55-.16-1.04-.15-.49-.46-.85-.31-.37-.79-.58-.48-.22-1.11-.22-1.23 0-1.94.7-.7.71-.9 1.99m7.25 1.72h-7.31q.07.91.33 1.57.25.66.66 1.09.42.43.99.64.56.22 1.25.22t1.2-.17q.5-.16.87-.35.37-.2.65-.36.29-.16.55-.16.36 0 .53.27l.82 1.03q-.48.55-1.06.93-.59.37-1.23.59-.63.23-1.3.32-.66.09-1.28.09-1.23 0-2.29-.41-1.05-.4-1.84-1.2-.78-.8-1.23-1.98t-.45-2.73q0-1.21.4-2.27.39-1.07 1.12-1.86.73-.78 1.78-1.24t2.37-.46q1.12 0 2.06.35.95.36 1.62 1.04.68.69 1.07 1.68.38 1 .38 2.27 0 .65-.14.87-.13.23-.52.23m2.82-11.55h2.85v17.09h-2.85zm14.12 8.74v5.29q.48.59 1.05.83t1.23.24q.65 0 1.17-.24.51-.24.88-.74.36-.49.55-1.24.2-.76.2-1.78 0-1.04-.17-1.76-.17-.71-.48-1.16t-.75-.66-1.01-.21q-.88 0-1.5.38-.62.37-1.17 1.05m-.38-2.93.23 1.09q.72-.82 1.64-1.32.92-.51 2.16-.51.97 0 1.77.4.8.41 1.38 1.17.58.77.89 1.89.32 1.12.32 2.57 0 1.32-.36 2.45-.35 1.12-1.01 1.95t-1.6 1.3q-.94.46-2.1.46-.99 0-1.69-.3-.7-.31-1.25-.85v4.83h-2.85v-15.65h1.74q.55 0 .73.52m16.83 8.23v-1.99q-1.23.06-2.07.22-.84.15-1.34.39-.51.24-.73.57-.22.32-.22.7 0 .74.45 1.07.44.32 1.15.32.88 0 1.51-.32.64-.31 1.25-.96m-6-6.2-.51-.9q2.04-1.87 4.9-1.87 1.04 0 1.85.34.82.34 1.38.94.57.61.86 1.45t.29 1.84v7.45h-1.28q-.41 0-.63-.12-.21-.12-.34-.49l-.25-.85q-.45.4-.88.71-.42.3-.88.51t-.99.31q-.52.11-1.15.11-.75 0-1.38-.2t-1.09-.6-.72-1q-.25-.6-.25-1.39 0-.45.15-.89.15-.45.49-.85t.88-.76 1.33-.62q.78-.26 1.83-.43t2.39-.2v-.69q0-1.19-.5-1.76-.51-.57-1.46-.57-.69 0-1.15.17-.45.16-.8.36-.34.2-.63.36-.28.16-.62.16-.3 0-.51-.15-.2-.16-.33-.37m13.9-2.03.2.93q.35-.36.75-.66.4-.31.84-.52t.95-.33 1.1-.12q.97 0 1.72.32.74.33 1.24.92.5.6.76 1.42t.26 1.81v7.51h-2.84v-7.51q0-1.08-.49-1.67-.5-.6-1.51-.6-.74 0-1.38.34-.64.33-1.22.91v8.53h-2.84v-11.8h1.74q.55 0 .72.52m12.76 4.02h5.35q0-.55-.15-1.04-.16-.49-.47-.85-.31-.37-.78-.58-.48-.22-1.11-.22-1.23 0-1.94.7-.71.71-.9 1.99m7.24 1.72h-7.3q.07.91.32 1.57t.67 1.09q.41.43.98.64.57.22 1.26.22t1.19-.17q.5-.16.87-.35.38-.2.66-.36t.55-.16q.35 0 .52.27l.82 1.03q-.47.55-1.06.93-.58.37-1.22.59-.64.23-1.3.32t-1.28.09q-1.23 0-2.29-.41-1.06-.4-1.84-1.2t-1.23-1.98-.45-2.73q0-1.21.39-2.27.39-1.07 1.12-1.86.73-.78 1.78-1.24 1.06-.46 2.38-.46 1.11 0 2.06.35.94.36 1.62 1.04.68.69 1.06 1.68.39 1 .39 2.27 0 .65-.14.87-.14.23-.53.23m2.83-11.55h2.84v17.09h-2.84zm18.68 13.59v-5.29q-.49-.58-1.06-.82-.57-.25-1.22-.25t-1.16.25q-.52.24-.89.73t-.56 1.24q-.2.75-.2 1.77 0 1.04.17 1.76t.48 1.17q.31.46.76.66.44.2 1 .2.88 0 1.5-.37t1.18-1.05m0-13.59h2.84v17.09h-1.74q-.56 0-.71-.52l-.24-1.14q-.72.82-1.64 1.33-.93.5-2.16.5-.97 0-1.77-.4-.81-.4-1.39-1.17-.58-.76-.89-1.89-.32-1.13-.32-2.58 0-1.31.36-2.43.35-1.13 1.02-1.96t1.6-1.29q.93-.47 2.09-.47.99 0 1.69.31t1.26.84zm7.88 9.83h5.36q0-.55-.15-1.04-.16-.49-.47-.85-.31-.37-.79-.58-.47-.22-1.1-.22-1.24 0-1.94.7-.71.71-.91 1.99m7.25 1.72h-7.3q.07.91.32 1.57t.67 1.09q.41.43.98.64.57.22 1.26.22t1.19-.17q.5-.16.87-.35.38-.2.66-.36t.54-.16q.36 0 .53.27l.82 1.03q-.47.55-1.06.93-.58.37-1.22.59-.64.23-1.3.32t-1.28.09q-1.23 0-2.29-.41-1.06-.4-1.84-1.2t-1.23-1.98-.45-2.73q0-1.21.39-2.27.39-1.07 1.12-1.86.73-.78 1.78-1.24 1.06-.46 2.38-.46 1.11 0 2.06.35.94.36 1.62 1.04.68.69 1.06 1.68.39 1 .39 2.27 0 .65-.14.87-.14.23-.53.23m11.22-2.81v5.29q.49.59 1.06.83t1.23.24q.65 0 1.16-.24.52-.24.88-.74.37-.49.56-1.24.2-.76.2-1.78 0-1.04-.17-1.76-.17-.71-.48-1.16t-.75-.66-1.01-.21q-.88 0-1.5.38-.62.37-1.18 1.05m-.38-2.93.23 1.09q.73-.82 1.65-1.32.92-.51 2.16-.51.97 0 1.77.4.8.41 1.38 1.17.58.77.89 1.89.32 1.12.32 2.57 0 1.32-.36 2.45-.35 1.12-1.02 1.95-.66.83-1.59 1.3-.94.46-2.1.46-.99 0-1.69-.3-.7-.31-1.26-.85v4.83h-2.84v-15.65h1.74q.55 0 .72.52m12.85 4.02h5.36q0-.55-.16-1.04-.15-.49-.46-.85-.31-.37-.79-.58-.48-.22-1.11-.22-1.23 0-1.94.7-.7.71-.9 1.99m7.24 1.72h-7.3q.07.91.32 1.57.26.66.67 1.09.42.43.98.64.57.22 1.26.22t1.19-.17q.5-.16.88-.35.37-.2.65-.36.29-.16.55-.16.36 0 .53.27l.82 1.03q-.48.55-1.06.93-.59.37-1.23.59-.64.23-1.3.32t-1.28.09q-1.23 0-2.29-.41-1.06-.4-1.84-1.2t-1.23-1.98-.45-2.73q0-1.21.39-2.27.4-1.07 1.13-1.86.73-.78 1.78-1.24t2.37-.46q1.12 0 2.06.35.94.36 1.62 1.04.68.69 1.07 1.68.38 1 .38 2.27 0 .65-.14.87-.13.23-.53.23m9.03 2.49v-1.99q-1.23.06-2.07.22-.84.15-1.34.39-.51.24-.73.57-.22.32-.22.7 0 .74.45 1.07.44.32 1.15.32.88 0 1.51-.32.64-.31 1.25-.96m-6-6.2-.51-.9q2.04-1.87 4.9-1.87 1.04 0 1.85.34.82.34 1.38.94.57.61.86 1.45t.29 1.84v7.45h-1.28q-.41 0-.63-.12-.21-.12-.34-.49l-.25-.85q-.45.4-.88.71-.42.3-.88.51t-.99.31q-.52.11-1.15.11-.75 0-1.38-.2t-1.09-.6-.72-1q-.25-.6-.25-1.39 0-.45.15-.89.15-.45.49-.85t.88-.76 1.33-.62q.78-.26 1.83-.43t2.39-.2v-.69q0-1.19-.5-1.76-.51-.57-1.46-.57-.69 0-1.15.17-.45.16-.8.36-.34.2-.62.36-.29.16-.63.16-.3 0-.51-.15-.2-.16-.33-.37m11.53-2.55h2.86v12.2q0 .77-.21 1.45-.2.68-.64 1.19t-1.16.81q-.72.29-1.75.29-.41 0-.75-.05-.35-.05-.72-.17l.11-1.53q.03-.23.18-.29t.58-.06q.42 0 .72-.09.29-.09.46-.28t.25-.5q.07-.31.07-.77zm3.25-3.44q0 .37-.15.69t-.4.57q-.25.24-.59.38t-.71.14-.69-.14q-.33-.14-.57-.38-.24-.25-.38-.57-.15-.32-.15-.69 0-.38.15-.71.14-.33.38-.58.24-.24.57-.38.32-.14.69-.14t.71.14.59.38q.25.25.4.58t.15.71m4.75 7.98h5.36q0-.55-.16-1.04t-.47-.85q-.31-.37-.78-.58-.48-.22-1.11-.22-1.23 0-1.94.7-.71.71-.9 1.99m7.24 1.72h-7.3q.07.91.32 1.57t.67 1.09q.41.43.98.64.57.22 1.26.22t1.19-.17q.5-.16.87-.35.38-.2.66-.36t.55-.16q.35 0 .53.27l.81 1.03q-.47.55-1.06.93-.58.37-1.22.59-.64.23-1.3.32t-1.28.09q-1.23 0-2.29-.41-1.06-.4-1.84-1.2t-1.23-1.98-.45-2.73q0-1.21.39-2.27.39-1.07 1.12-1.86.73-.78 1.78-1.24 1.06-.46 2.38-.46 1.11 0 2.06.35.94.36 1.62 1.04.68.69 1.06 1.68.39 1 .39 2.27 0 .65-.14.87-.14.23-.53.23m10.64-4.98-.65 1.02q-.11.19-.24.26-.12.07-.32.07-.21 0-.44-.11-.24-.12-.55-.26t-.7-.26q-.4-.11-.94-.11-.84 0-1.32.35-.48.36-.48.93 0 .38.25.64t.66.46q.4.19.92.35.52.15 1.05.34.54.18 1.06.42.51.23.92.6.41.36.66.86.25.51.25 1.22 0 .85-.31 1.57-.3.72-.9 1.24-.6.53-1.48.82t-2.03.29q-.61 0-1.19-.11-.58-.1-1.12-.3-.53-.2-.98-.46-.46-.26-.8-.57l.65-1.09q.13-.19.3-.3.17-.1.44-.1.26 0 .5.15.23.15.54.32.31.18.73.32.42.15 1.07.15.5 0 .87-.12.36-.12.59-.31.24-.2.35-.46t.11-.53q0-.42-.25-.68t-.65-.46q-.41-.2-.94-.35-.52-.16-1.06-.34-.55-.18-1.07-.43-.53-.25-.94-.63-.4-.38-.65-.93t-.25-1.33q0-.73.29-1.38.29-.66.84-1.15.56-.49 1.4-.78.83-.29 1.92-.29 1.22 0 2.22.4t1.67 1.06"/></svg>