<svg xmlns="http://www.w3.org/2000/svg" width="600" height="400" viewBox="0 0 600 400"><rect width="100%" height="100%" fill="#DDDDDD"/><path fill="#999999" d="m151.275 181.555-2.14 4.06q-.38.68-.82.98-.43.3-1.07.3-.67 0-1.45-.49-.79-.5-1.88-1.11-1.08-.6-2.54-1.1t-3.44-.5q-1.79 0-3.14.44-1.34.43-2.25 1.2-.91.76-1.36 1.84-.45 1.07-.45 2.35 0 1.63.91 2.72t2.42 1.85q1.5.77 3.42 1.38t3.94 1.3q2.01.68 3.93 1.6 1.92.91 3.43 2.3 1.5 1.39 2.41 3.41.92 2.01.92 4.89 0 3.14-1.08 5.88-1.07 2.73-3.13 4.76-2.07 2.04-5.04 3.2-2.98 1.17-6.82 1.17-2.21 0-4.35-.43t-4.11-1.23-3.7-1.92-3.07-2.5l2.53-4.13q.32-.44.83-.75.51-.3 1.09-.3.8 0 1.73.65.92.66 2.2 1.46t3 1.46q1.71.65 4.11.65 3.68 0 5.69-1.74 2.02-1.75 2.02-5.01 0-1.82-.91-2.98-.91-1.15-2.42-1.93-1.5-.79-3.42-1.33t-3.91-1.18q-1.98-.64-3.9-1.54t-3.42-2.34q-1.51-1.44-2.42-3.6t-.91-5.32q0-2.53 1.01-4.93 1-2.4 2.92-4.26 1.92-1.85 4.74-2.97t6.46-1.12q4.1 0 7.56 1.28 3.45 1.28 5.88 3.58m7.33 9.09h7.94v32.83h-7.94zm9.03-9.57q0 1.02-.42 1.92t-1.1 1.57q-.69.67-1.62 1.07t-1.98.4q-1.03 0-1.94-.4t-1.58-1.07q-.68-.67-1.08-1.57t-.4-1.92q0-1.06.4-1.98.4-.93 1.08-1.6.67-.68 1.58-1.08t1.94-.4q1.05 0 1.98.4t1.62 1.08q.68.67 1.1 1.6.42.92.42 1.98m13.82 11.01.54 2.59q1-.99 2.1-1.84t2.34-1.44q1.23-.59 2.64-.93 1.4-.33 3.07-.33 2.69 0 4.77.91t3.47 2.56 2.11 3.93q.72 2.29.72 5.04v20.9h-7.9v-20.9q0-3-1.38-4.65t-4.19-1.65q-2.05 0-3.84.93t-3.39 2.53v23.74h-7.91v-32.83h4.83q1.54 0 2.02 1.44m70.4 2.62-2.08 2.88q-.35.45-.69.71-.33.25-.97.25-.61 0-1.19-.37-.57-.36-1.37-.83-.8-.46-1.91-.83-1.1-.37-2.73-.37-2.08 0-3.65.75-1.57.76-2.61 2.16-1.04 1.41-1.55 3.41t-.51 4.53q0 2.62.56 4.67t1.61 3.44q1.06 1.39 2.56 2.11 1.51.72 3.39.72 1.89 0 3.06-.46t1.97-1.02 1.39-1.03q.59-.46 1.33-.46.96 0 1.44.73l2.27 2.88q-1.31 1.54-2.85 2.58-1.53 1.04-3.18 1.66-1.65.63-3.39.88-1.75.26-3.48.26-3.04 0-5.72-1.14-2.69-1.13-4.71-3.31-2.01-2.17-3.18-5.33-1.17-3.15-1.17-7.18 0-3.62 1.04-6.7 1.04-3.09 3.06-5.35 2.01-2.25 4.99-3.53 2.97-1.28 6.85-1.28 3.68 0 6.44 1.18 2.77 1.18 4.98 3.39m19.78-4.57q3.64 0 6.64 1.18 2.99 1.18 5.12 3.36 2.12 2.18 3.28 5.31 1.15 3.14 1.15 7.01 0 3.9-1.15 7.04-1.16 3.14-3.28 5.34-2.13 2.21-5.12 3.4-3 1.18-6.64 1.18-3.68 0-6.69-1.18-3.01-1.19-5.14-3.4-2.13-2.2-3.29-5.34-1.17-3.14-1.17-7.04 0-3.87 1.17-7.01 1.16-3.13 3.29-5.31t5.14-3.36 6.69-1.18m0 27.74q4.09 0 6.06-2.75t1.97-8.07q0-5.31-1.97-8.09-1.97-2.79-6.06-2.79-4.16 0-6.16 2.8t-2 8.08 2 8.05 6.16 2.77m29.08-25.79.55 2.59q.99-.99 2.09-1.84 1.11-.85 2.34-1.44t2.64-.93q1.41-.33 3.07-.33 2.69 0 4.77.91t3.47 2.56 2.11 3.93q.72 2.29.72 5.04v20.9h-7.9v-20.9q0-3-1.38-4.65-1.37-1.65-4.19-1.65-2.05 0-3.84.93t-3.39 2.53v23.74h-7.9v-32.83h4.83q1.53 0 2.01 1.44m35.49 11.2h14.91q0-1.54-.43-2.9t-1.29-2.38q-.87-1.03-2.2-1.62-1.32-.59-3.08-.59-3.43 0-5.4 1.95-1.96 1.95-2.51 5.54m20.16 4.77h-20.32q.19 2.52.9 4.36.7 1.84 1.85 3.04 1.16 1.2 2.74 1.8 1.58.59 3.5.59t3.32-.45q1.39-.45 2.43-.99 1.04-.55 1.82-.99.79-.45 1.52-.45.99 0 1.47.73l2.28 2.88q-1.32 1.54-2.95 2.58t-3.41 1.66q-1.77.63-3.61.88-1.84.26-3.57.26-3.42 0-6.37-1.14-2.94-1.13-5.12-3.36-2.17-2.22-3.42-5.5t-1.25-7.6q0-3.36 1.09-6.32t3.12-5.15 4.96-3.47 6.61-1.28q3.1 0 5.72.99 2.63.99 4.52 2.89 1.88 1.91 2.96 4.68 1.07 2.76 1.07 6.32 0 1.79-.39 2.41-.38.63-1.47.63m25.86-1.86 11.23 17.28h-7.62q-.86 0-1.39-.45t-.88-1.02l-6.94-11.43q-.16.55-.37 1.03t-.46.89l-6.15 9.51q-.35.54-.86 1.01-.51.46-1.28.46h-7.07l11.26-16.93-10.82-15.9h7.62q.86 0 1.28.24t.74.78l6.88 10.95q.35-1.09.99-2.15l5.53-8.64q.71-1.18 1.83-1.18h7.26zm15.58-15.55h7.94v32.83h-7.94zm9.03-9.57q0 1.02-.42 1.92t-1.1 1.57q-.69.67-1.62 1.07t-1.98.4q-1.03 0-1.94-.4t-1.58-1.07q-.68-.67-1.08-1.57t-.4-1.92q0-1.06.4-1.98.4-.93 1.08-1.6.67-.68 1.58-1.08t1.94-.4q1.05 0 1.98.4t1.62 1.08q.68.67 1.1 1.6.42.92.42 1.98m21.5 9.06q3.65 0 6.64 1.18t5.12 3.36 3.28 5.31q1.15 3.14 1.15 7.01 0 3.9-1.15 7.04t-3.28 5.34q-2.13 2.21-5.12 3.4-2.99 1.18-6.64 1.18-3.68 0-6.69-1.18-3.01-1.19-5.13-3.4-2.13-2.2-3.3-5.34t-1.17-7.04q0-3.87 1.17-7.01 1.17-3.13 3.3-5.31 2.12-2.18 5.13-3.36t6.69-1.18m0 27.74q4.1 0 6.06-2.75 1.97-2.75 1.97-8.07 0-5.31-1.97-8.09-1.96-2.79-6.06-2.79-4.16 0-6.16 2.8t-2 8.08 2 8.05 6.16 2.77m3.39-41.18h7.68l-7.9 8.35q-.61.64-1.17.88t-1.46.24h-4.73l4.54-7.78q.48-.83 1.12-1.26t1.92-.43m25.7 15.39.54 2.59q.99-.99 2.1-1.84 1.1-.85 2.33-1.44 1.24-.59 2.64-.93 1.41-.33 3.08-.33 2.68 0 4.76.91t3.48 2.56q1.39 1.65 2.11 3.93.72 2.29.72 5.04v20.9h-7.91v-20.9q0-3-1.37-4.65-1.38-1.65-4.19-1.65-2.05 0-3.84.93-1.8.93-3.4 2.53v23.74h-7.9v-32.83h4.83q1.54 0 2.02 1.44"/></svg>